<svg width="16" height="16" viewBox="0 0 16 16" fill="none" xmlns="http://www.w3.org/2000/svg">
<g clip-path="url(#clip0_685_6731)">
<path d="M7.80371 4.25639C8.39307 4.25639 9.13184 3.86987 9.57178 3.3545C9.97021 2.88746 10.2607 2.2352 10.2607 1.58294C10.2607 1.49436 10.2524 1.40579 10.2358 1.33331C9.58008 1.35747 8.7915 1.7601 8.31836 2.29962C7.94482 2.7103 7.60449 3.3545 7.60449 4.01481C7.60449 4.11144 7.62109 4.20808 7.62939 4.24029C7.6709 4.24834 7.7373 4.25639 7.80371 4.25639ZM5.72852 14C6.53369 14 6.89062 13.4766 7.89502 13.4766C8.91602 13.4766 9.14014 13.9839 10.0366 13.9839C10.9165 13.9839 11.5059 13.1947 12.062 12.4217C12.6846 11.5359 12.9419 10.6662 12.9585 10.626C12.9004 10.6099 11.2153 9.94149 11.2153 8.06525C11.2153 6.43863 12.5435 5.70585 12.6182 5.64948C11.7383 4.42549 10.4019 4.39328 10.0366 4.39328C9.04883 4.39328 8.24365 4.97307 7.7373 4.97307C7.18945 4.97307 6.46729 4.42549 5.6123 4.42549C3.98535 4.42549 2.3335 5.73001 2.3335 8.19409C2.3335 9.72407 2.94775 11.3426 3.70312 12.3895C4.35059 13.2752 4.91504 14 5.72852 14Z" fill="black"/>
</g>
<defs>
<clipPath id="clip0_685_6731">
<rect width="11.3333" height="13.3333" fill="white" transform="translate(2.3335 1.33331)"/>
</clipPath>
</defs>
</svg>
