<svg width="24" height="24" viewBox="0 0 24 24" fill="none" xmlns="http://www.w3.org/2000/svg">
<g clip-path="url(#clip0_685_6740)">
<path d="M11.7053 6.38461C12.5894 6.38461 13.6975 5.80483 14.3574 5.03179C14.9551 4.33121 15.3909 3.35283 15.3909 2.37444C15.3909 2.24158 15.3784 2.10871 15.3535 2C14.3699 2.03624 13.187 2.64018 12.4773 3.44946C11.917 4.06548 11.4065 5.03179 11.4065 6.02225C11.4065 6.1672 11.4314 6.31214 11.4438 6.36046C11.5061 6.37254 11.6057 6.38461 11.7053 6.38461ZM8.59253 21C9.80029 21 10.3357 20.2149 11.8423 20.2149C13.3738 20.2149 13.71 20.9758 15.0547 20.9758C16.3745 20.9758 17.2585 19.7921 18.0928 18.6325C19.0266 17.3039 19.4126 15.9994 19.4375 15.939C19.3503 15.9148 16.8228 14.9123 16.8228 12.0979C16.8228 9.65798 18.8149 8.5588 18.927 8.47425C17.6072 6.63827 15.6025 6.58996 15.0547 6.58996C13.573 6.58996 12.3652 7.45963 11.6057 7.45963C10.7839 7.45963 9.70068 6.63827 8.41821 6.63827C5.97778 6.63827 3.5 8.59504 3.5 12.2912C3.5 14.5861 4.42139 17.014 5.55444 18.5842C6.52563 19.9129 7.37231 21 8.59253 21Z" fill="black"/>
</g>
<defs>
<clipPath id="clip0_685_6740">
<rect width="17" height="20" fill="white" transform="translate(3.5 2)"/>
</clipPath>
</defs>
</svg>
