<svg width="24" height="24" viewBox="0 0 24 24" fill="none" xmlns="http://www.w3.org/2000/svg">
<path d="M9.1556 15.9443L19.0211 5.37416C19.2539 5.12472 19.5255 5 19.8359 5C20.1463 5 20.418 5.12472 20.6508 5.37416C20.8836 5.62361 21 5.91982 21 6.26281C21 6.60579 20.8836 6.902 20.6508 7.15145L9.97045 18.6258C9.73763 18.8753 9.46602 19 9.1556 19C8.84518 19 8.57356 18.8753 8.34075 18.6258L3.33525 13.2628C3.10244 13.0134 2.99088 12.7171 3.00058 12.3742C3.01028 12.0312 3.13154 11.735 3.36435 11.4855C3.59717 11.2361 3.87363 11.1114 4.19375 11.1114C4.51387 11.1114 4.79034 11.2361 5.02315 11.4855L9.1556 15.9443Z" fill="#41434A"/>
</svg>
