<svg width="24" height="24" viewBox="0 0 24 24" fill="none" xmlns="http://www.w3.org/2000/svg">
<circle cx="12" cy="12" r="12" fill="#9BABFB"/>
<path d="M8.01 10.89L10.59 13.47L16.53 7.53001C16.75 7.31001 17.03 7.20001 17.37 7.20001C17.71 7.20001 17.99 7.31001 18.21 7.53001C18.43 7.75001 18.54 8.03001 18.54 8.37001C18.54 8.71001 18.43 8.99001 18.21 9.21001L11.43 15.99C11.19 16.23 10.91 16.35 10.59 16.35C10.27 16.35 9.99 16.23 9.75 15.99L6.33 12.57C6.11 12.35 6 12.07 6 11.73C6 11.39 6.11 11.11 6.33 10.89C6.55 10.67 6.83 10.56 7.17 10.56C7.51 10.56 7.79 10.67 8.01 10.89Z" fill="white"/>
</svg>
