<svg width="16" height="16" viewBox="0 0 16 16" fill="none" xmlns="http://www.w3.org/2000/svg">
<path d="M6.10373 10.6295L12.6807 3.58276C12.8359 3.41646 13.017 3.33331 13.224 3.33331C13.4309 3.33331 13.612 3.41646 13.7672 3.58276C13.9224 3.74905 14 3.94653 14 4.17518C14 4.40384 13.9224 4.60132 13.7672 4.76761L6.64696 12.4172C6.49175 12.5835 6.31068 12.6666 6.10373 12.6666C5.89679 12.6666 5.71571 12.5835 5.5605 12.4172L2.2235 8.84185C2.06829 8.67555 1.99392 8.47808 2.00039 8.24942C2.00686 8.02077 2.08769 7.82329 2.2429 7.657C2.39811 7.4907 2.58242 7.40755 2.79584 7.40755C3.00925 7.40755 3.19356 7.4907 3.34877 7.657L6.10373 10.6295Z" fill="#E2E5EC"/>
</svg>
