<svg width="24" height="24" viewBox="0 0 24 24" fill="none" xmlns="http://www.w3.org/2000/svg">
<path d="M9.78769 15.3808L17.4608 6.32071C17.6419 6.1069 17.8532 6 18.0946 6C18.3361 6 18.5473 6.1069 18.7284 6.32071C18.9095 6.53452 19 6.78842 19 7.08241C19 7.37639 18.9095 7.63029 18.7284 7.8441L10.4215 17.6793C10.2404 17.8931 10.0291 18 9.78769 18C9.54625 18 9.33499 17.8931 9.15392 17.6793L5.26075 13.0824C5.07967 12.8686 4.99291 12.6147 5.00045 12.3207C5.008 12.0267 5.10231 11.7728 5.28339 11.559C5.46446 11.3452 5.67949 11.2383 5.92847 11.2383C6.17746 11.2383 6.39249 11.3452 6.57356 11.559L9.78769 15.3808Z" fill="#9BABFB"/>
</svg>
