<svg width="18" height="18" viewBox="0 0 18 18" fill="none" xmlns="http://www.w3.org/2000/svg">
<path fill-rule="evenodd" clip-rule="evenodd" d="M13.1632 4.64645C12.968 4.45118 12.6514 4.45118 12.4561 4.64645L8.75836 8.34422L5.06059 4.64645C4.86532 4.45118 4.54874 4.45118 4.35348 4.64645C4.15822 4.84171 4.15822 5.15829 4.35348 5.35355L8.05126 9.05133L4.35349 12.7491C4.15823 12.9444 4.15823 13.2609 4.35349 13.4562C4.54876 13.6515 4.86534 13.6515 5.0606 13.4562L8.75836 9.75844L12.4561 13.4562C12.6514 13.6515 12.968 13.6515 13.1632 13.4562C13.3585 13.2609 13.3585 12.9444 13.1632 12.7491L9.46547 9.05133L13.1632 5.35355C13.3585 5.15829 13.3585 4.84171 13.1632 4.64645Z" fill="#9BABFB"/>
</svg>
