<svg width="30" height="30" viewBox="0 0 30 30" fill="none" xmlns="http://www.w3.org/2000/svg">
<path fill-rule="evenodd" clip-rule="evenodd" d="M7.66232 7.66255C7.30659 8.01828 7.30659 8.59503 7.66232 8.95076L13.7156 15.004L7.6623 21.0573C7.30658 21.413 7.30658 21.9897 7.6623 22.3455C8.01803 22.7012 8.59479 22.7012 8.95052 22.3455L15.0038 16.2922L21.057 22.3455C21.4128 22.7012 21.9895 22.7012 22.3452 22.3455C22.701 21.9897 22.701 21.413 22.3452 21.0573L16.292 15.004L22.3452 8.95076C22.701 8.59503 22.701 8.01828 22.3452 7.66255C21.9895 7.30682 21.4127 7.30682 21.057 7.66255L15.0038 13.7158L8.95054 7.66255C8.59481 7.30682 8.01805 7.30682 7.66232 7.66255Z" fill="#E2E5EC"/>
</svg>
