<svg width="24" height="24" viewBox="0 0 24 24" fill="none" xmlns="http://www.w3.org/2000/svg">
<path fill-rule="evenodd" clip-rule="evenodd" d="M17.0268 15.4572C17.0268 15.11 17.3082 14.8286 17.6553 14.8286L20.7982 14.8286C21.1453 14.8286 21.4268 15.11 21.4268 15.4572C21.4268 15.8043 21.1453 16.0858 20.7982 16.0858L17.6553 16.0858C17.3082 16.0858 17.0268 15.8043 17.0268 15.4572Z" fill="#70737D"/>
<path fill-rule="evenodd" clip-rule="evenodd" d="M2.56996 15.4572C2.56996 15.11 2.85139 14.8286 3.19854 14.8286L11.37 14.8286C11.7171 14.8286 11.9985 15.11 11.9985 15.4572C11.9985 15.8043 11.7171 16.0858 11.37 16.0858L3.19853 16.0858C2.85138 16.0858 2.56996 15.8043 2.56996 15.4572Z" fill="#70737D"/>
<path fill-rule="evenodd" clip-rule="evenodd" d="M14.5125 13.5714C13.471 13.5714 12.6268 14.4157 12.6268 15.4571C12.6268 16.4986 13.471 17.3428 14.5125 17.3428C15.5539 17.3428 16.3982 16.4986 16.3982 15.4571C16.3982 14.4157 15.5539 13.5714 14.5125 13.5714ZM11.3696 15.4571C11.3696 13.7214 12.7767 12.3143 14.5125 12.3143C16.2482 12.3143 17.6553 13.7214 17.6553 15.4571C17.6553 17.1929 16.2482 18.6 14.5125 18.6C12.7767 18.6 11.3696 17.1929 11.3696 15.4571Z" fill="#70737D"/>
<path fill-rule="evenodd" clip-rule="evenodd" d="M6.96982 8.54282C6.96982 8.88997 6.6884 9.17139 6.34125 9.17139L3.1984 9.17139C2.85124 9.17139 2.56982 8.88997 2.56982 8.54282C2.56982 8.19567 2.85125 7.91425 3.1984 7.91425L6.34125 7.91425C6.6884 7.91425 6.96982 8.19567 6.96982 8.54282Z" fill="#70737D"/>
<path fill-rule="evenodd" clip-rule="evenodd" d="M21.4266 8.54282C21.4266 8.88997 21.1452 9.17139 20.798 9.17139L12.6266 9.17139C12.2795 9.17139 11.998 8.88997 11.998 8.54282C11.998 8.19567 12.2795 7.91425 12.6266 7.91425L20.798 7.91425C21.1452 7.91425 21.4266 8.19567 21.4266 8.54282Z" fill="#70737D"/>
<path fill-rule="evenodd" clip-rule="evenodd" d="M9.4841 10.4286C10.5255 10.4286 11.3698 9.58432 11.3698 8.54287C11.3698 7.50142 10.5255 6.65716 9.4841 6.65716C8.44264 6.65716 7.59838 7.50142 7.59838 8.54287C7.59838 9.58432 8.44264 10.4286 9.4841 10.4286ZM12.627 8.54287C12.627 10.2786 11.2198 11.6857 9.4841 11.6857C7.74834 11.6857 6.34124 10.2786 6.34124 8.54287C6.34124 6.80712 7.74834 5.40001 9.4841 5.40001C11.2198 5.40001 12.627 6.80712 12.627 8.54287Z" fill="#70737D"/>
</svg>
