<svg width="24" height="24" viewBox="0 0 24 24" fill="none" xmlns="http://www.w3.org/2000/svg">
<path d="M12.2475 4.5C7.55544 4.5 3.75 7.4857 3.75 11.1618C3.75 13.4117 5.16982 15.4011 7.34218 16.6124L6.67493 20.1189C6.66301 20.181 6.66982 20.2453 6.69453 20.3036C6.71923 20.3619 6.76072 20.4116 6.81379 20.4466C6.86685 20.4815 6.92912 20.5001 6.99277 20.5C7.05643 20.4999 7.11863 20.4811 7.17156 20.4459L11.1659 17.7812C11.5253 17.8177 11.8863 17.8359 12.2475 17.8357C16.9396 17.8357 20.745 14.85 20.745 11.1739C20.745 7.4978 16.9396 4.5 12.2475 4.5Z" fill="black"/>
</svg>
