<svg width="16" height="16" viewBox="0 0 16 16" fill="none" xmlns="http://www.w3.org/2000/svg">
<path d="M8.165 3C5.03696 3 2.5 4.99047 2.5 7.4412C2.5 8.94112 3.44654 10.2674 4.89478 11.0749L4.44995 13.4126C4.442 13.454 4.44655 13.4969 4.46302 13.5357C4.47949 13.5746 4.50715 13.6078 4.54252 13.6311C4.5779 13.6544 4.61941 13.6667 4.66185 13.6667C4.70428 13.6666 4.74575 13.6541 4.78104 13.6306L7.44393 11.8541C7.68351 11.8785 7.92418 11.8906 8.165 11.8905C11.293 11.8905 13.83 9.90001 13.83 7.44927C13.83 4.99854 11.293 3 8.165 3Z" fill="black"/>
</svg>
