<svg width="24" height="24" viewBox="0 0 24 24" fill="none" xmlns="http://www.w3.org/2000/svg">
<rect width="24" height="24" rx="12" fill="white"/>
<g clip-path="url(#clip0_685_6851)">
<path d="M11.8158 8.49038C12.3683 8.49038 13.0609 8.12802 13.4734 7.64487C13.8469 7.20701 14.1193 6.59552 14.1193 5.98403C14.1193 5.90098 14.1115 5.81794 14.0959 5.75C13.4812 5.77265 12.7419 6.15011 12.2983 6.65591C11.9481 7.04092 11.6291 7.64487 11.6291 8.26391C11.6291 8.3545 11.6446 8.44509 11.6524 8.47529C11.6913 8.48284 11.7536 8.49038 11.8158 8.49038ZM9.87033 17.625C10.6252 17.625 10.9598 17.1343 11.9014 17.1343C12.8586 17.1343 13.0687 17.6099 13.9092 17.6099C14.7341 17.6099 15.2866 16.8701 15.808 16.1453C16.3916 15.3149 16.6329 14.4996 16.6484 14.4619C16.594 14.4468 15.0142 13.8202 15.0142 12.0612C15.0142 10.5362 16.2593 9.84925 16.3294 9.79641C15.5045 8.64892 14.2516 8.61872 13.9092 8.61872C12.9831 8.61872 12.2283 9.16227 11.7536 9.16227C11.24 9.16227 10.5629 8.64892 9.76138 8.64892C8.23611 8.64892 6.6875 9.8719 6.6875 12.182C6.6875 13.6163 7.26337 15.1337 7.97153 16.1151C8.57852 16.9456 9.1077 17.625 9.87033 17.625Z" fill="black"/>
</g>
<defs>
<clipPath id="clip0_685_6851">
<rect width="10.625" height="12.5" fill="white" transform="translate(6.6875 5.75)"/>
</clipPath>
</defs>
</svg>
