<svg width="24" height="24" viewBox="0 0 24 24" fill="none" xmlns="http://www.w3.org/2000/svg">
<rect width="24" height="24" rx="12" fill="#FEE500"/>
<path d="M12.1547 7C9.22215 7 6.84375 8.99047 6.84375 11.4412C6.84375 12.9411 7.73113 14.2674 9.08886 15.0749L8.67183 17.4126C8.66438 17.454 8.66864 17.4969 8.68408 17.5357C8.69952 17.5746 8.72545 17.6078 8.75862 17.6311C8.79178 17.6544 8.8307 17.6667 8.87048 17.6667C8.91027 17.6666 8.94914 17.6541 8.98222 17.6306L11.4787 15.8541C11.7033 15.8785 11.9289 15.8906 12.1547 15.8905C15.0872 15.8905 17.4656 13.9 17.4656 11.4493C17.4656 8.99854 15.0872 7 12.1547 7Z" fill="black"/>
</svg>
