<svg width="28" height="28" viewBox="0 0 28 28" fill="none" xmlns="http://www.w3.org/2000/svg">
<path d="M2.99889 8.48058L12.1612 3.48296C13.3074 2.85778 14.6926 2.85778 15.8388 3.48296L25.0011 8.48058C25.6169 8.81646 26 9.46185 26 10.1633C26 11.2218 25.1419 12.08 24.0833 12.08H3.91672C2.85814 12.08 2 11.2218 2 10.1633C2 9.46185 2.38313 8.81646 2.99889 8.48058Z" fill="#41434A"/>
<g filter="url(#filter0_b_685_6784)">
<rect x="3.91992" y="10.16" width="20.16" height="13.44" rx="1.92" fill="#41434A"/>
</g>
<rect x="2" y="21.6799" width="24" height="3.84" rx="1.92" fill="#41434A"/>
<path opacity="0.9" d="M6.7998 14C6.7998 13.4698 7.22961 13.04 7.7598 13.04C8.29 13.04 8.7198 13.4698 8.7198 14V18.8C8.7198 19.3302 8.29 19.76 7.7598 19.76C7.22961 19.76 6.7998 19.3302 6.7998 18.8V14Z" fill="#70737D"/>
<rect opacity="0.9" x="13.52" y="13.04" width="1.92" height="6.72" rx="0.96" fill="#70737D"/>
<rect opacity="0.9" x="20.2402" y="13.04" width="1.92" height="6.72" rx="0.96" fill="#70737D"/>
<defs>
<filter id="filter0_b_685_6784" x="0.079922" y="6.32003" width="27.8402" height="21.1199" filterUnits="userSpaceOnUse" color-interpolation-filters="sRGB">
<feFlood flood-opacity="0" result="BackgroundImageFix"/>
<feGaussianBlur in="BackgroundImageFix" stdDeviation="1.92"/>
<feComposite in2="SourceAlpha" operator="in" result="effect1_backgroundBlur_685_6784"/>
<feBlend mode="normal" in="SourceGraphic" in2="effect1_backgroundBlur_685_6784" result="shape"/>
</filter>
</defs>
</svg>
