<svg width="28" height="28" viewBox="0 0 28 28" fill="none" xmlns="http://www.w3.org/2000/svg">
<path d="M10.6081 14.9188L25.1535 21.0093C26.2715 21.478 27.5651 20.7639 27.5643 19.6784L27.5554 7.47604C27.5546 6.3905 26.2599 5.67833 25.1426 6.14861L10.6061 12.2604C9.33047 12.7962 9.33163 14.3868 10.6081 14.9207L10.6081 14.9188Z" fill="#41434A"/>
<path d="M1 8.98864C1 6.78577 2.87598 5 5.19011 5H18.3782C20.6923 5 22.5683 6.78577 22.5683 8.98864V19.0114C22.5683 21.2142 20.6923 23 18.3782 23H5.19011C2.87597 23 1 21.2142 1 19.0114V8.98864Z" fill="#41434A"/>
<path d="M8.82959 15.8967V12.1035C8.82959 11.6461 9.29767 11.3381 9.71771 11.519L14.1206 13.4157C14.6334 13.6366 14.6334 14.3637 14.1206 14.5846L9.71771 16.4812C9.29767 16.6621 8.82959 16.3541 8.82959 15.8967Z" fill="#70737D"/>
</svg>
