<svg width="28" height="28" viewBox="0 0 28 28" fill="none" xmlns="http://www.w3.org/2000/svg">
<path d="M10.6081 14.9188L25.1535 21.0093C26.2715 21.478 27.5651 20.7639 27.5643 19.6784L27.5554 7.47604C27.5546 6.3905 26.2599 5.67833 25.1426 6.14861L10.6061 12.2604C9.33047 12.7962 9.33163 14.3868 10.6081 14.9207L10.6081 14.9188Z" fill="url(#paint0_linear_685_6775)"/>
<g filter="url(#filter0_b_685_6775)">
<rect x="1" y="5.01611" width="22.0979" height="17.8133" rx="4" transform="rotate(-0.041828 1 5.01611)" fill="#9BABFB" fill-opacity="0.4"/>
<rect x="1" y="5.01611" width="22.0979" height="17.8133" rx="4" transform="rotate(-0.041828 1 5.01611)" stroke="url(#paint1_linear_685_6775)" stroke-width="0.275524"/>
</g>
<path d="M9 16.0125V12.0183C9 11.5367 9.49288 11.2123 9.93518 11.4028L14.5714 13.4C15.1113 13.6326 15.1113 14.3982 14.5714 14.6308L9.93518 16.6279C9.49288 16.8184 9 16.4941 9 16.0125Z" fill="white"/>
<defs>
<filter id="filter0_b_685_6775" x="-3.13477" y="0.865112" width="30.3804" height="26.0992" filterUnits="userSpaceOnUse" color-interpolation-filters="sRGB">
<feFlood flood-opacity="0" result="BackgroundImageFix"/>
<feGaussianBlur in="BackgroundImageFix" stdDeviation="2"/>
<feComposite in2="SourceAlpha" operator="in" result="effect1_backgroundBlur_685_6775"/>
<feBlend mode="normal" in="SourceGraphic" in2="effect1_backgroundBlur_685_6775" result="shape"/>
</filter>
<linearGradient id="paint0_linear_685_6775" x1="28.0002" y1="4" x2="15.5002" y2="23" gradientUnits="userSpaceOnUse">
<stop offset="0.276553" stop-color="#9BABFB"/>
<stop offset="1" stop-color="#494EC8"/>
</linearGradient>
<linearGradient id="paint1_linear_685_6775" x1="-1.06651" y1="2.26076" x2="19.5986" y2="22.2371" gradientUnits="userSpaceOnUse">
<stop stop-color="white"/>
<stop offset="0.726676" stop-color="white" stop-opacity="0"/>
</linearGradient>
</defs>
</svg>
